<svg width="23" height="23" viewBox="0 0 23 23" fill="none" xmlns="http://www.w3.org/2000/svg">
<path d="M6.40246 8.48591L3.91626 11.3149L10.7562 19.0979L23 5.16591L20.5147 2.33691L10.7562 13.4389L6.40246 8.48591Z" fill="#4D4D4D"/>
<path d="M19.3198 20C19.3198 20.542 18.8985 21 18.3998 21H2.75998C2.26134 21 1.83998 20.542 1.83998 20V3C1.83998 2.458 2.26134 2 2.75998 2H18.3152L19.7734 0.415C19.3576 0.146542 18.8835 0.00329969 18.3998 0H2.75998C1.24199 0 0 1.35 0 3V20C0 21.65 1.24199 23 2.75998 23H18.3998C19.9178 23 21.1598 21.65 21.1598 20V10.171L19.3198 12.171V20Z" fill="#4D4D4D"/>
</svg>
